<?xml version="1.0" encoding="iso-8859-1"?>
<!-- Generator: Adobe Illustrator 14.0.0, SVG Export Plug-In . SVG Version: 6.00 Build 43363)  -->
<!DOCTYPE svg PUBLIC "-//W3C//DTD SVG 1.1//EN" "http://www.w3.org/Graphics/SVG/1.1/DTD/svg11.dtd">
<svg version="1.1" id="Layer_1" xmlns="http://www.w3.org/2000/svg" xmlns:xlink="http://www.w3.org/1999/xlink" x="0px" y="0px"
	 width="16px" height="16px" viewBox="0 0 16 16" style="enable-background:new 0 0 16 16;" xml:space="preserve">
<path style="fill-rule:evenodd;clip-rule:evenodd;" d="M10.962,9.725l4.181,4.169c0.257,0.262,0.257,0.689,0,0.955l-0.928,0.953
	c-0.253,0.266-0.666,0.266-0.925,0l-4.334-4.578l-0.094,0.071c-0.699,0.301-1.467,0.463-2.287,0.463
	c-3.286,0-5.907-2.703-5.907-5.925c0-3.219,2.621-5.832,5.907-5.832c3.292,0,5.824,2.613,5.824,5.832
	c0,1.445-0.49,2.783-1.353,3.826L10.962,9.725z M6.568,2.083c2.135,0,3.794,1.697,3.794,3.789c0,2.093-1.659,3.791-3.794,3.791
	c-2.135,0-3.836-1.697-3.836-3.791C2.732,3.78,4.433,2.083,6.568,2.083z"/>
</svg>
