<?xml version="1.0" encoding="utf-8"?>
<!-- Generator: Adobe Illustrator 16.0.3, SVG Export Plug-In . SVG Version: 6.00 Build 0)  -->
<!DOCTYPE svg PUBLIC "-//W3C//DTD SVG 1.0//EN" "http://www.w3.org/TR/2001/REC-SVG-20010904/DTD/svg10.dtd">
<svg version="1.0" id="Layer_1" xmlns="http://www.w3.org/2000/svg" xmlns:xlink="http://www.w3.org/1999/xlink" x="0px" y="0px"
	 width="29.75px" height="36.938px" viewBox="0 0 29.75 36.938" enable-background="new 0 0 29.75 36.938" xml:space="preserve">
<path fill-rule="evenodd" clip-rule="evenodd" fill="#FF8070" stroke="#A94D43" stroke-miterlimit="10" d="M15.2,1
	c-5.528,0-10,4.456-10,9.942c0,1.572,0.97,4.171,3.099,6.856c3.915,4.901,6.601,12.686,6.844,17.487h0.115
	c0.243-4.802,2.941-12.586,6.84-17.487c2.129-2.686,3.103-5.285,3.103-6.856C25.2,5.456,20.728,1,15.2,1z M15.143,14.729
	c-2.343,0-4.229-1.856-4.229-4.158c0-2.298,1.885-4.171,4.229-4.171c2.343,0,4.244,1.873,4.244,4.171
	C19.387,12.873,17.485,14.729,15.143,14.729z"/>
</svg>
