<?xml version="1.0" encoding="utf-8"?>
<!-- Generator: Adobe Illustrator 16.0.3, SVG Export Plug-In . SVG Version: 6.00 Build 0)  -->
<!DOCTYPE svg PUBLIC "-//W3C//DTD SVG 1.0//EN" "http://www.w3.org/TR/2001/REC-SVG-20010904/DTD/svg10.dtd">
<svg version="1.0" id="Layer_1" xmlns="http://www.w3.org/2000/svg" xmlns:xlink="http://www.w3.org/1999/xlink" x="0px" y="0px"
	 width="24px" height="24px" viewBox="0 0 24 24" enable-background="new 0 0 24 24" xml:space="preserve">
<path fill-rule="evenodd" clip-rule="evenodd" fill="#FFFFFF" d="M13.61,4.14V2.32h1.16C15.93,2.32,16,1.2,16,1.2
	C16,0.07,14.77,0,14.77,0H9.16C7.86,0,8,1.34,8,1.34c0,0.98,1.09,0.94,1.09,0.94h1.15v1.88C5.56,5,2,9.08,2,14c0,5.52,4.48,10,10,10
	s10-4.48,10-10C22,9.03,18.37,4.92,13.61,4.14z M4.92,15.25c-0.69,0-1.25-0.56-1.25-1.25s0.56-1.25,1.25-1.25S6.17,13.31,6.17,14
	S5.61,15.25,4.92,15.25z M12,22.33c-0.69,0-1.25-0.56-1.25-1.25c0-0.69,0.56-1.25,1.25-1.25c0.69,0,1.25,0.56,1.25,1.25
	C13.25,21.77,12.69,22.33,12,22.33z M11.96,16.79c-1.13,0-1.96-0.83-1.96-1.95c0-1.94,1.36-2.05,1.36-2.05V6.61
	c0-0.37,0.3-0.66,0.66-0.66c0.36,0,0.66,0.29,0.66,0.66v6.14c0,0,1.32,0.19,1.32,2.09C14,15.96,13.08,16.79,11.96,16.79z
	 M19.08,15.25c-0.69,0-1.25-0.56-1.25-1.25s0.56-1.25,1.25-1.25c0.69,0,1.25,0.56,1.25,1.25S19.77,15.25,19.08,15.25z"/>
</svg>
