<?xml version="1.0" encoding="utf-8"?>
<!-- Generator: Adobe Illustrator 16.0.0, SVG Export Plug-In . SVG Version: 6.00 Build 0)  -->
<!DOCTYPE svg PUBLIC "-//W3C//DTD SVG 1.1//EN" "http://www.w3.org/Graphics/SVG/1.1/DTD/svg11.dtd">
<svg version="1.1" id="Layer_1" xmlns="http://www.w3.org/2000/svg" xmlns:xlink="http://www.w3.org/1999/xlink" x="0px" y="0px"
	 width="100px" height="100px" viewBox="0 0 100 100" enable-background="new 0 0 100 100" xml:space="preserve">
<path fill="#FFFFFF" d="M100,18.985c-3.68,1.632-7.633,2.735-11.783,3.23c4.235-2.539,7.488-6.56,9.021-11.351
	c-3.964,2.352-8.354,4.059-13.028,4.979c-3.742-3.987-9.074-6.479-14.975-6.479c-11.33,0-20.517,9.186-20.517,20.516
	c0,1.608,0.181,3.174,0.531,4.676c-17.051-0.855-32.168-9.023-42.287-21.436c-1.766,3.03-2.778,6.554-2.778,10.314
	c0,7.118,3.622,13.397,9.127,17.077c-3.363-0.107-6.527-1.03-9.292-2.566c-0.002,0.086-0.002,0.171-0.002,0.258
	c0,9.94,7.072,18.232,16.457,20.117c-1.721,0.469-3.534,0.721-5.405,0.721c-1.322,0-2.607-0.129-3.86-0.369
	c2.61,8.15,10.188,14.084,19.165,14.248c-7.021,5.504-15.868,8.783-25.48,8.783c-1.656,0-3.289-0.098-4.894-0.287
	c9.079,5.82,19.863,9.219,31.449,9.219c37.736,0,58.373-31.264,58.373-58.375c0-0.889-0.02-1.774-0.06-2.654
	C93.771,26.713,97.25,23.1,100,18.985z"/>
</svg>
