<?xml version="1.0" encoding="utf-8"?>
<!-- Generator: Adobe Illustrator 16.0.0, SVG Export Plug-In . SVG Version: 6.00 Build 0)  -->
<!DOCTYPE svg PUBLIC "-//W3C//DTD SVG 1.1//EN" "http://www.w3.org/Graphics/SVG/1.1/DTD/svg11.dtd">
<svg version="1.1" id="Layer_1" xmlns="http://www.w3.org/2000/svg" xmlns:xlink="http://www.w3.org/1999/xlink" x="0px" y="0px"
	 width="100px" height="100px" viewBox="0 0 100 100" enable-background="new 0 0 100 100" xml:space="preserve">
<path fill-rule="evenodd" clip-rule="evenodd" fill="#FFFFFF" d="M88.338,60.586c-5.167,4.562-12.521,7.345-22.071,8.349
	c2.344,0.959,3.986,2.638,4.952,5.031c0.967,2.393,1.563,5.037,1.855,7.949c0.282,2.92,0.38,5.877,0.272,8.789
	c-0.107,2.958-0.137,5.418-0.137,7.409V100H35.429c0.186-1.466,0.239-2.971,0.15-4.502c-0.111-1.555-0.15-3.077-0.15-4.53
	c0-0.402,0.015-0.85,0.068-1.289c0.049-0.421,0.082-0.89,0.082-1.387c-2.304,0.557-4.32,0.839-6.088,0.839
	c-4.391,0-7.598-0.655-9.692-1.991c-2.07-1.301-3.662-2.891-4.756-4.766c-1.085-1.848-2.095-3.779-2.959-5.831
	c-0.889-2.021-2.339-3.828-4.307-5.392c-0.61-0.507-1.402-0.976-2.397-1.435c-1.001-0.479-1.489-1.289-1.489-2.47
	c0-0.48,0.425-0.811,1.271-0.89c0.815-0.098,1.331-0.155,1.547-0.155c2.494,0,4.497,0.713,6.011,2.176
	c1.528,1.466,2.968,3.029,4.316,4.746c1.328,1.75,2.856,3.34,4.531,4.758c1.684,1.463,3.916,2.178,6.689,2.178
	c1.41,0,2.71-0.195,3.852-0.566c1.143-0.373,2.403-0.782,3.785-1.174c0.585-2.08,1.425-3.974,2.445-5.722
	c1.074-1.709,2.578-2.979,4.531-3.818c-9.434-1.093-16.576-3.944-21.425-8.517c-4.858-4.568-7.262-11.748-7.262-21.57
	c0-3.277,0.528-6.538,1.627-9.717c1.104-3.194,2.772-6.119,5.068-8.692c-0.308-1.123-0.509-2.235-0.626-3.383
	c-0.082-1.162-0.136-2.31-0.136-3.457c0-2.071,0.229-4.409,0.679-6.962c0.464-2.515,1.274-4.692,2.455-6.456h0.89
	c2.25-0.104,4.267,0.117,6.059,0.645c1.803,0.536,3.516,1.246,5.137,2.089c1.636,0.864,3.229,1.832,4.781,2.917
	c1.542,1.068,3.202,2.054,4.97,2.958c1.675-0.185,3.355-0.342,5.005-0.464c1.646-0.099,3.307-0.157,4.975-0.157
	c1.662,0,3.34,0.059,4.99,0.157c1.643,0.122,3.302,0.279,5.002,0.464c1.767-0.968,3.426-1.953,4.98-3.019
	c1.542-1.024,3.134-1.992,4.755-2.856c1.631-0.843,3.349-1.553,5.177-2.089c1.824-0.527,3.837-0.748,6.032-0.645h0.918
	c1.085,1.763,1.877,3.94,2.394,6.456c0.478,2.553,0.702,4.891,0.702,6.962c0,1.147-0.019,2.295-0.136,3.422
	c-0.107,1.125-0.304,2.272-0.624,3.418c2.273,2.637,3.992,5.537,5.126,8.692c1.152,3.139,1.728,6.376,1.728,9.717
	C96.109,48.716,93.533,56.017,88.338,60.586z"/>
</svg>
