<?xml version="1.0" encoding="iso-8859-1"?>
<!-- Generator: Adobe Illustrator 14.0.0, SVG Export Plug-In . SVG Version: 6.00 Build 43363)  -->
<!DOCTYPE svg PUBLIC "-//W3C//DTD SVG 1.1//EN" "http://www.w3.org/Graphics/SVG/1.1/DTD/svg11.dtd">
<svg version="1.1" id="Layer_1" xmlns="http://www.w3.org/2000/svg" xmlns:xlink="http://www.w3.org/1999/xlink" x="0px" y="0px"
	 width="24px" height="24px" viewBox="0 0 24 24" style="enable-background:new 0 0 24 24;" xml:space="preserve">
<path id="Google_2_" style="fill:#FFFFFF;" d="M19.732,0h-6.494c-1.703,0-3.846,0.252-5.643,1.73
	C6.238,2.896,5.578,4.502,5.578,5.951c0,2.457,1.891,4.946,5.232,4.946c0.316,0,0.66-0.032,1.01-0.063
	c-0.156,0.377-0.316,0.692-0.316,1.229c0,0.977,0.504,1.574,0.945,2.141c-1.416,0.094-4.066,0.252-6.021,1.448
	C4.568,16.756,4,18.36,4,19.495C4,21.825,6.207,24,10.779,24c5.422,0,8.293-2.992,8.293-5.954c0-2.171-1.262-3.244-2.648-4.409
	l-1.137-0.882c-0.346-0.283-0.818-0.661-0.818-1.354c0-0.692,0.473-1.135,0.883-1.543C16.674,8.818,18,7.716,18,5.385
	c0-2.395-1.516-3.654-2.24-4.252h1.957L19.732,0z M16.961,19.274c0,1.953-1.609,3.401-4.637,3.401c-3.373,0-5.549-1.606-5.549-3.842
	c0-2.237,2.018-2.991,2.711-3.244c1.324-0.441,3.027-0.504,3.311-0.504c0.314,0,0.473,0,0.727,0.031
	C15.92,16.817,16.961,17.669,16.961,19.274z M14.438,9.133c-0.506,0.504-1.357,0.882-2.146,0.882c-2.709,0-3.939-3.497-3.939-5.606
	c0-0.819,0.158-1.669,0.693-2.33c0.504-0.631,1.387-1.04,2.207-1.04c2.617,0,3.975,3.527,3.975,5.795
	C15.227,7.4,15.162,8.408,14.438,9.133z"/>
</svg>
