<?xml version="1.0" encoding="utf-8"?>
<!-- Generator: Adobe Illustrator 16.0.3, SVG Export Plug-In . SVG Version: 6.00 Build 0)  -->
<!DOCTYPE svg PUBLIC "-//W3C//DTD SVG 1.1//EN" "http://www.w3.org/Graphics/SVG/1.1/DTD/svg11.dtd">
<svg version="1.1" id="Layer_1" xmlns="http://www.w3.org/2000/svg" xmlns:xlink="http://www.w3.org/1999/xlink" x="0px" y="0px"
	 width="100px" height="100px" viewBox="0 0 100 100" enable-background="new 0 0 100 100" xml:space="preserve">
<path fill="#FFFFFF" d="M83.271,63.23L71.346,60.38c-1.072,2.162-2.531,4.168-4.342,5.984c-9.125,9.013-23.941,9.013-33.097,0
	c-9.128-9.041-9.128-23.66,0-32.668c7.873-7.787,19.972-8.836,29.017-3.207l-7.701,7.607L85,44.402L78.607,15l-7.058,6.971
	c-13.878-10.179-33.565-9.101-46.162,3.326c-13.853,13.645-13.853,35.787,0,49.469c13.827,13.644,36.282,13.644,50.135,0
	C78.956,71.352,81.548,67.443,83.271,63.23z"/>
</svg>
