<?xml version="1.0" encoding="utf-8"?>
<!-- Generator: Adobe Illustrator 16.0.4, SVG Export Plug-In . SVG Version: 6.00 Build 0)  -->
<!DOCTYPE svg PUBLIC "-//W3C//DTD SVG 1.1//EN" "http://www.w3.org/Graphics/SVG/1.1/DTD/svg11.dtd">
<svg version="1.1" id="Layer_1" xmlns="http://www.w3.org/2000/svg" xmlns:xlink="http://www.w3.org/1999/xlink" x="0px" y="0px"
	 width="24px" height="24px" viewBox="0 0 24 24" enable-background="new 0 0 24 24" xml:space="preserve">
<path fill="#FFFFFF" d="M17.229,7.9c1.69,1.45,2.66,3.21,2.66,5.401c0,4.238-3.54,7.68-7.89,7.68c-4.351,0-7.89-3.441-7.89-7.68
	c0-2.051,0.82-3.971,2.31-5.421l-2.2-2.14C2.14,7.76,1,10.45,1,13.301C1,19.199,5.93,24,12,24c6.069,0,11-4.801,11-10.699
	c0-3.051-1.351-5.641-3.7-7.671L17.229,7.9z"/>
<path fill="#FFFFFF" d="M13.58,13.189c0,0.881-0.82,1.59-1.84,1.59s-1.85-0.709-1.85-1.59V1.6c0-0.88,0.83-1.6,1.85-1.6
	s1.84,0.72,1.84,1.6V13.189z"/>
</svg>
