<?xml version="1.0" encoding="utf-8"?>
<!-- Generator: Adobe Illustrator 16.0.4, SVG Export Plug-In . SVG Version: 6.00 Build 0)  -->
<!DOCTYPE svg PUBLIC "-//W3C//DTD SVG 1.1//EN" "http://www.w3.org/Graphics/SVG/1.1/DTD/svg11.dtd">
<svg version="1.1" id="Layer_1" xmlns="http://www.w3.org/2000/svg" xmlns:xlink="http://www.w3.org/1999/xlink" x="0px" y="0px"
	 width="24px" height="24px" viewBox="0 0 24 24" enable-background="new 0 0 24 24" xml:space="preserve">
<path fill-rule="evenodd" clip-rule="evenodd" fill="#191614" d="M23.31,13.629c0.38,0,0.69-0.309,0.69-0.689v-1.88
	c0-0.38-0.311-0.69-0.69-0.69h-1.64c-0.38,0-0.78-0.3-0.89-0.66l-0.94-2.3c-0.19-0.33-0.12-0.83,0.149-1.09l1.16-1.16
	c0.271-0.27,0.271-0.71,0-0.98l-1.33-1.33c-0.27-0.27-0.71-0.27-0.979,0l-1.16,1.16c-0.26,0.27-0.76,0.34-1.09,0.15l-2.3-0.94
	c-0.36-0.11-0.66-0.51-0.66-0.89V0.69c0-0.38-0.311-0.69-0.69-0.69h-1.88c-0.38,0-0.69,0.31-0.69,0.69v1.64
	c0,0.38-0.3,0.78-0.66,0.89l-2.3,0.94C7.08,4.35,6.59,4.28,6.32,4.01L5.16,2.85c-0.27-0.27-0.71-0.27-0.98,0L2.85,4.18
	c-0.27,0.27-0.27,0.71,0,0.98l1.16,1.16c0.27,0.26,0.34,0.76,0.15,1.09l-0.94,2.3c-0.11,0.36-0.51,0.66-0.89,0.66H0.689
	C0.31,10.37,0,10.68,0,11.06v1.88c0,0.38,0.31,0.689,0.689,0.689H2.33c0.38,0,0.779,0.301,0.89,0.66l0.94,2.301
	c0.19,0.33,0.12,0.82-0.15,1.09l-1.16,1.16c-0.27,0.27-0.27,0.709,0,0.98l1.33,1.33c0.27,0.27,0.71,0.27,0.98,0l1.16-1.16
	c0.27-0.271,0.76-0.34,1.09-0.15l2.3,0.939c0.36,0.111,0.66,0.51,0.66,0.891v1.641c0,0.379,0.31,0.689,0.69,0.689h1.88
	c0.38,0,0.69-0.311,0.69-0.689V21.67c0-0.381,0.3-0.779,0.66-0.891l2.3-0.939c0.33-0.189,0.83-0.121,1.09,0.15l1.16,1.16
	c0.27,0.27,0.71,0.27,0.979,0l1.33-1.33c0.271-0.271,0.271-0.711,0-0.98l-1.16-1.16c-0.27-0.27-0.34-0.76-0.149-1.09l0.94-2.301
	c0.109-0.359,0.51-0.66,0.89-0.66H23.31z M12,17.51c-3.04,0-5.51-2.471-5.51-5.51c0-3.04,2.47-5.51,5.51-5.51s5.51,2.47,5.51,5.51
	C17.51,15.039,15.04,17.51,12,17.51z"/>
</svg>
