<?xml version="1.0" encoding="utf-8"?>
<!-- Generator: Adobe Illustrator 16.0.4, SVG Export Plug-In . SVG Version: 6.00 Build 0)  -->
<!DOCTYPE svg PUBLIC "-//W3C//DTD SVG 1.1//EN" "http://www.w3.org/Graphics/SVG/1.1/DTD/svg11.dtd">
<svg version="1.1" id="Layer_1" xmlns="http://www.w3.org/2000/svg" xmlns:xlink="http://www.w3.org/1999/xlink" x="0px" y="0px"
	 width="16px" height="16px" viewBox="0 0 16 16" enable-background="new 0 0 16 16" xml:space="preserve">
<path fill="#FFFFFF" d="M8,1C4.134,1,1,4.134,1,8c0,3.863,3.134,7,7,7c3.864,0,7-3.137,7-7C15,4.134,11.864,1,8,1z M11.365,10.381
	l-0.985,0.983c-0.183,0.184-0.476,0.184-0.655,0.001L7.999,9.643l-1.723,1.723c-0.18,0.184-0.476,0.184-0.657,0l-0.985-0.983
	c-0.178-0.184-0.178-0.475,0-0.657L6.358,8L4.634,6.275c-0.178-0.179-0.178-0.475,0-0.656l0.985-0.985
	c0.183-0.178,0.477-0.178,0.657,0L8,6.358l1.725-1.725c0.182-0.178,0.474-0.178,0.655,0l0.985,0.985
	c0.182,0.182,0.183,0.477,0,0.656L9.643,7.999l1.724,1.726C11.548,9.904,11.548,10.197,11.365,10.381z"/>
</svg>
